<?xml version="1.0" encoding="UTF-8"?>
<svg width="20px" height="20px" viewBox="0 0 20 20" version="1.1" xmlns="http://www.w3.org/2000/svg" xmlns:xlink="http://www.w3.org/1999/xlink">
    <!-- Generator: Sketch 47.1 (45422) - http://www.bohemiancoding.com/sketch -->
    <title>grid-classic-icon</title>
    <desc>Created with Sketch.</desc>
    <defs></defs>
    <g id="Assets" stroke="none" stroke-width="1" fill="none" fill-rule="evenodd">
        <g id="grid-classic-icon" fill="#111111">
            <path d="M2,2 L6,2 L6,6 L2,6 L2,2 Z M2,8 L6,8 L6,12 L2,12 L2,8 Z M2,14 L6,14 L6,18 L2,18 L2,14 Z M8,8 L12,8 L12,12 L8,12 L8,8 Z M8,14 L12,14 L12,18 L8,18 L8,14 Z M14,8 L18,8 L18,12 L14,12 L14,8 Z M14,14 L18,14 L18,18 L14,18 L14,14 Z M8,2 L12,2 L12,6 L8,6 L8,2 Z M14,2 L18,2 L18,6 L14,6 L14,2 Z" id="icon"></path>
        </g>
    </g>
</svg>