<?xml version="1.0" encoding="UTF-8"?>
<svg width="20px" height="20px" viewBox="0 0 20 20" version="1.1" xmlns="http://www.w3.org/2000/svg" xmlns:xlink="http://www.w3.org/1999/xlink">
    <!-- Generator: Sketch 47.1 (45422) - http://www.bohemiancoding.com/sketch -->
    <title>grid-masonry-icon</title>
    <desc>Created with Sketch.</desc>
    <defs></defs>
    <g id="Assets" stroke="none" stroke-width="1" fill="none" fill-rule="evenodd">
        <g id="grid-masonry-icon" fill="#111111">
            <path d="M2,2 L6,2 L6,10 L2,10 L2,2 Z M2,12 L6,12 L6,18 L2,18 L2,12 Z M8,14 L12,14 L12,18 L8,18 L8,14 Z M14,10 L18,10 L18,18 L14,18 L14,10 Z M8,2 L12,2 L12,12 L8,12 L8,2 Z M14,2 L18,2 L18,8 L14,8 L14,2 Z" id="icon"></path>
        </g>
    </g>
</svg>