<?xml version="1.0" encoding="utf-8"?>
<!-- Generator: Adobe Illustrator 24.0.3, SVG Export Plug-In . SVG Version: 6.00 Build 0)  -->
<svg version="1.1" id="Layer_1" xmlns="http://www.w3.org/2000/svg" xmlns:xlink="http://www.w3.org/1999/xlink" x="0px" y="0px"
	 viewBox="0 0 32 32" style="enable-background:new 0 0 32 32;" xml:space="preserve">
<style type="text/css">
	.st0{fill:none;}
</style>
<path d="M20.6,10.1h-9.2c-0.7,0-1.3,0.6-1.3,1.3v9.2c0,0.7,0.6,1.3,1.3,1.3h9.2c0.7,0,1.3-0.6,1.3-1.3v-9.2
	C21.9,10.7,21.3,10.1,20.6,10.1z M14,19.3h-1.7v-4.6H14V19.3z M13.2,13.8c-0.5,0-0.8-0.3-0.8-0.8c0-0.5,0.3-0.8,0.9-0.8
	c0.5,0,0.8,0.3,0.8,0.8C14.1,13.5,13.7,13.8,13.2,13.8z M19.9,19.3h-1.6v-2.5c0-0.7-0.4-0.9-0.6-0.9s-0.7,0.1-0.7,0.9
	c0,0.1,0,2.5,0,2.5h-1.7v-4.6h1.7v0.6c0.2-0.4,0.6-0.6,1.4-0.6s1.4,0.6,1.4,2.1V19.3z"/>
<rect class="st0" width="32" height="32"/>
</svg>
