<?xml version="1.0" encoding="utf-8"?>
<!-- Generator: Adobe Illustrator 24.1.2, SVG Export Plug-In . SVG Version: 6.00 Build 0)  -->
<svg version="1.1" id="Layer_1" xmlns="http://www.w3.org/2000/svg" xmlns:xlink="http://www.w3.org/1999/xlink" x="0px" y="0px"
	 viewBox="0 0 1200 1200" style="enable-background:new 0 0 1200 1200;" xml:space="preserve">
<style type="text/css">
	.st0{fill:#FFFFFF;}
</style>
<path id="XMLID_5_" class="st0" d="M369.2,1004V458.9h-181V1004H369.2L369.2,1004z M278.7,384.7c63,0,102.7-41.7,102.7-94.1
	c-1-53.9-39.2-94.6-101.2-94.6s-102.7,40.7-102.7,94.1c0,52.4,39.2,94.1,100.2,94.1h1V384.7L278.7,384.7z M469.8,1004h181V699.4
	c0-16.3,1-32.5,6.1-44.2c13.2-32.5,42.7-66.1,93-66.1c65.6,0,91.5,49.8,91.5,123V1004h181V691.3c0-167.3-89.5-245.1-208.5-245.1
	c-97.6,0-140.8,54.4-164.7,92h1v-79.3H469.8C471.9,509.7,469.8,1004,469.8,1004L469.8,1004L469.8,1004z"/>
</svg>
