<?xml version="1.0" encoding="UTF-8"?>
<svg width="16px" height="16px" viewBox="0 0 16 16" version="1.1" xmlns="http://www.w3.org/2000/svg" xmlns:xlink="http://www.w3.org/1999/xlink">
    <!-- Generator: Sketch 47.1 (45422) - http://www.bohemiancoding.com/sketch -->
    <title>phone-icon-white</title>
    <desc>Created with Sketch.</desc>
    <defs></defs>
    <g id="Assets" stroke="none" stroke-width="1" fill="none" fill-rule="evenodd">
        <g id="phone-icon-white" fill-rule="nonzero" fill="#FFFFFF">
            <path d="M13.4320971,11.1364281 C12.5253583,10.3096239 11.6025912,9.80720046 10.707301,10.634004 L10.1715011,11.1315499 C9.77995462,11.4949539 9.0518162,13.1875849 6.2377199,9.73647044 C3.42362418,6.29267302 5.09742748,5.75610402 5.49126352,5.39757883 L6.0293536,4.89759361 C6.92006402,4.07079002 6.58347145,3.02935821 5.94005342,1.9562202 L5.55308676,1.30745919 C4.90737855,0.239199391 4.20213728,-0.463218213 3.30913726,0.36114658 L2.82600104,0.812352801 C2.42987541,1.1172214 1.32621832,2.1147518 1.05831837,4.00737701 C0.735464555,6.27803963 1.75440066,8.88039945 4.08307057,11.7339707 C6.40945087,14.5899813 8.69003629,16.0240839 10.8469758,15.9996941 C12.6398452,15.9777437 13.7251844,14.9533847 14.0640665,14.5802255 L14.5472027,14.1290199 C15.4402028,13.3046545 14.8860849,12.4632169 13.977056,11.6364127 L13.4320971,11.1364281 Z" id="icon" transform="translate(8.000000, 8.000000) scale(-1, 1) translate(-8.000000, -8.000000) "></path>
        </g>
    </g>
</svg>