<?xml version="1.0" encoding="UTF-8"?>
<svg width="47px" height="40px" viewBox="0 0 47 40" version="1.1" xmlns="http://www.w3.org/2000/svg" xmlns:xlink="http://www.w3.org/1999/xlink">
    <!-- Generator: Sketch 47.1 (45422) - http://www.bohemiancoding.com/sketch -->
    <title>quote-icon</title>
    <desc>Created with Sketch.</desc>
    <defs></defs>
    <g id="Template" stroke="none" stroke-width="1" fill="none" fill-rule="evenodd" opacity="0.100000001">
        <g id="Landing-v.1" transform="translate(-1213.000000, -2168.000000)" fill="#FFFFFF">
            <g id="Testimonials" transform="translate(88.000000, 2048.000000)">
                <path d="M1125,160 C1125,152.992666 1125.04865,147.931889 1125.14596,144.817518 C1125.34058,136.447647 1126.60558,130.243329 1128.94099,126.20438 C1131.27641,122.16543 1135.36332,120.097324 1141.20186,120 L1143.53727,126.569343 C1140.22876,126.763991 1137.99069,128.029185 1136.82298,130.364964 C1135.65527,132.700742 1135.07143,136.35034 1135.07143,141.313869 L1144.12112,141.313869 L1144.12112,160 L1125,160 Z M1152.87888,160 C1152.87888,152.992666 1152.92754,147.931889 1153.02484,144.817518 C1153.21946,136.447647 1154.48446,130.243329 1156.81988,126.20438 C1159.15529,122.16543 1163.24221,120.097324 1169.08075,120 L1171.41615,126.569343 C1168.10764,126.763991 1165.86957,128.029185 1164.70186,130.364964 C1163.53416,132.700742 1162.95031,136.35034 1162.95031,141.313869 L1172,141.313869 L1172,160 L1152.87888,160 Z" id="quote-icon"></path>
            </g>
        </g>
    </g>
</svg>