<?xml version="1.0" encoding="UTF-8"?>
<svg width="32px" height="32px" viewBox="0 0 32 32" version="1.1" xmlns="http://www.w3.org/2000/svg" xmlns:xlink="http://www.w3.org/1999/xlink">
    <!-- Generator: Sketch 49.3 (51167) - http://www.bohemiancoding.com/sketch -->
    <title>quote-icon-white</title>
    <desc>Created with Sketch.</desc>
    <defs></defs>
    <g id="quote-icon-white" stroke="none" stroke-width="1" fill="none" fill-rule="evenodd">
        <path d="M0,28 C0,23.2700493 0.0330785496,19.8540251 0.0992366412,17.7518248 C0.231552824,12.1021615 1.09159511,7.91424721 2.67938931,5.1879562 C4.26718351,2.4616652 7.04578168,1.06569376 11.0152672,1 L12.6030534,5.43430657 C10.3536783,5.56569409 8.83206504,6.41970015 8.03816794,7.99635036 C7.24427084,9.57300058 6.84732824,12.0364796 6.84732824,15.3868613 L13,15.3868613 L13,28 L0,28 Z M19,28 C19,23.2700493 19.0330785,19.8540251 19.0992366,17.7518248 C19.2315528,12.1021615 20.0915951,7.91424721 21.6793893,5.1879562 C23.2671835,2.4616652 26.0457817,1.06569376 30.0152672,1 L31.6030534,5.43430657 C29.3536783,5.56569409 27.832065,6.41970015 27.0381679,7.99635036 C26.2442708,9.57300058 25.8473282,12.0364796 25.8473282,15.3868613 L32,15.3868613 L32,28 L19,28 Z" id="quote-icon" fill="#FFFFFF"></path>
    </g>
</svg>